<?xml version="1.0" encoding="UTF-8"?>
<svg version="1.1" xmlns="http://www.w3.org/2000/svg" width="2000" height="381">
<path d="M0 0 C0.81855469 0.67804687 1.63710938 1.35609375 2.48046875 2.0546875 C3.32996094 2.75335937 4.17945313 3.45203125 5.0546875 4.171875 C19.09604445 16.25647317 28.85797068 31.44178634 34.48046875 49.0546875 C34.96 50.54548828 34.96 50.54548828 35.44921875 52.06640625 C42.19257491 77.44764957 36.81941047 103.94587037 24.125 126.41015625 C10.92779529 147.63226454 -9.96146324 162.66616922 -34.08203125 168.9296875 C-35.88609084 169.34339057 -37.69950197 169.71812448 -39.51953125 170.0546875 C-40.44080811 170.22581055 -41.36208496 170.39693359 -42.3112793 170.57324219 C-48.36233684 171.42135269 -54.50063615 171.23157577 -60.59765625 171.265625 C-61.97378315 171.27861556 -63.34990245 171.29243455 -64.72601318 171.30703735 C-70.53651186 171.36817654 -76.34698556 171.42253031 -82.15771484 171.45605469 C-85.7256668 171.47718119 -89.29324734 171.51261964 -92.8609848 171.55681229 C-94.85640004 171.5775659 -96.85195624 171.58298635 -98.84747314 171.58798218 C-113.72583769 171.78709793 -125.29782337 175.31944419 -136.19140625 185.578125 C-146.8213584 196.88582578 -149.12541768 211.11983467 -149.06542969 226.11645508 C-149.07425105 227.59987048 -149.08480517 229.08327641 -149.09692764 230.56666851 C-149.1243676 234.49837954 -149.12844685 238.42977178 -149.12728882 242.36156464 C-149.12985225 246.06646682 -149.15401445 249.77111383 -149.17626953 253.47595215 C-149.22878698 264.27294763 -149.24712185 275.07008755 -149.26953125 285.8671875 C-149.35203125 310.0190625 -149.43453125 334.1709375 -149.51953125 359.0546875 C-211.55953125 359.0546875 -273.59953125 359.0546875 -337.51953125 359.0546875 C-337.51953125 291.4046875 -337.51953125 223.7546875 -337.51953125 154.0546875 C-331.53721908 154.0546875 -329.78514185 154.61635082 -324.70703125 157.2421875 C-319.22061696 159.94965253 -313.76517579 162.13824011 -307.89453125 163.8671875 C-307.25153076 164.06143311 -306.60853027 164.25567871 -305.94604492 164.45581055 C-273.1510077 173.73096888 -238.88709517 167.80562685 -209.5703125 151.48046875 C-203.42717097 147.90677936 -197.95404678 143.61314725 -192.51953125 139.0546875 C-191.6996875 138.38695312 -190.87984375 137.71921875 -190.03515625 137.03125 C-167.17390616 117.71743527 -155.48707206 89.15399452 -150.08203125 60.4921875 C-146.17294973 40.01785907 -138.10864712 24.09148382 -123.51953125 9.0546875 C-122.60300781 8.02794922 -122.60300781 8.02794922 -121.66796875 6.98046875 C-112.48561416 -2.96382591 -100.11721171 -9.41069886 -87.51953125 -13.9453125 C-86.40320313 -14.35910156 -85.286875 -14.77289063 -84.13671875 -15.19921875 C-55.92014087 -23.94452961 -23.23978204 -18.07147953 0 0 Z " fill="#000000" transform="translate(337.51953125,17.9453125)"/>
<path d="M0 0 C179.14993592 0 179.14993592 0 210 23 C210.77859375 23.57363281 211.5571875 24.14726563 212.359375 24.73828125 C226.68470617 36.28449817 235.70689801 54.4434724 240 72 C240.33644531 73.30130859 240.33644531 73.30130859 240.6796875 74.62890625 C246.15060794 100.37220995 240.99996633 127.90175447 227 150 C215.29646909 166.37729702 199.43814038 177.37042467 181 185 C182.37300618 188.65709179 184.02306228 191.95590808 185.984375 195.33203125 C186.5825 196.36521484 187.180625 197.39839844 187.796875 198.46289062 C188.44140625 199.56826172 189.0859375 200.67363281 189.75 201.8125 C190.42735613 202.97965943 191.10443512 204.14697975 191.78125 205.31445312 C193.84936114 208.87910806 195.92392266 212.43998022 198 216 C198.60521484 217.03817871 199.21042969 218.07635742 199.83398438 219.14599609 C202.13167816 223.08591055 204.43025017 227.02530534 206.73193359 230.96289062 C210.9766933 238.22875975 215.18024383 245.51767664 219.375 252.8125 C224.60047936 261.89432856 229.89819827 270.92984966 235.25 279.9375 C237.21708134 283.25227275 239.18387673 286.56721479 241.15039062 289.88232422 C242.35668586 291.91563865 243.56368386 293.94853638 244.77148438 295.98095703 C246.3544545 298.65003587 247.92864886 301.3240692 249.5 304 C249.9630957 304.77722412 250.42619141 305.55444824 250.90332031 306.35522461 C254 311.65614648 254 311.65614648 254 315 C246.70750516 315.30232466 239.41637573 315.53272053 232.11886597 315.67355824 C228.72916191 315.74119269 225.34376582 315.83271996 221.95654297 315.98071289 C200.18767113 316.86345063 200.18767113 316.86345063 195.07110596 313.87240601 C191.69466764 310.55962127 190.4321605 306.39456242 189 302 C187.92634149 300.01103638 186.80984418 298.04450289 185.6484375 296.10546875 C184.55514174 294.13400323 183.46405476 292.16131145 182.375 290.1875 C177.7132389 281.80073384 172.97943807 273.46424776 168.125 265.1875 C161.36664019 253.66048861 154.72808057 242.06734153 148.11474609 230.45684814 C145.96227815 226.68037865 143.8003813 222.90945863 141.63186646 219.1421814 C140.15094165 216.56935953 138.67233123 213.99521076 137.19378662 211.42102051 C136.48809365 210.19388608 135.78128741 208.96739111 135.07330322 207.74157715 C134.09017853 206.03905999 133.11140465 204.33403271 132.1328125 202.62890625 C131.57480957 201.66025635 131.01680664 200.69160645 130.44189453 199.69360352 C129 197 129 197 127 192 C101.59 192 76.18 192 50 192 C50 232.59 50 273.18 50 315 C33.5 315 17 315 0 315 C0 211.05 0 107.1 0 0 Z M50 46 C50 79.33 50 112.66 50 147 C65.406875 147.061875 80.81375 147.12375 96.6875 147.1875 C103.94947388 147.22846802 103.94947388 147.22846802 111.3581543 147.27026367 C115.74747149 147.28030502 115.74747149 147.28030502 120.13679504 147.28633118 C122.07207822 147.29089862 124.00735356 147.30136703 125.94258118 147.31672668 C145.65172818 147.46515828 162.82391165 145.7571407 177.80859375 131.421875 C188.80175775 119.27256719 190.65941854 104.87172656 190.13623047 89.16308594 C189.39440397 77.38426376 183.52151293 66.01922863 175 58 C164.17342851 48.69178915 149.49024921 45.82891477 135.59814453 45.88647461 C134.65576368 45.88635407 133.71338284 45.88623354 132.74244499 45.88610935 C129.70587643 45.886853 126.66937001 45.89445623 123.6328125 45.90234375 C121.75252309 45.90381487 119.87223326 45.90483453 117.99194336 45.90539551 C111.03628931 45.91062873 104.08064404 45.92458998 97.125 45.9375 C81.57375 45.958125 66.0225 45.97875 50 46 Z " fill="#000000" transform="translate(561,62)"/>
<path d="M0 0 C15.51 0 31.02 0 47 0 C47 107.58 47 215.16 47 326 C31.49 326 15.98 326 0 326 C-0.33 317.09 -0.66 308.18 -1 299 C-2.60875 300.670625 -4.2175 302.34125 -5.875 304.0625 C-23.63922014 321.98474137 -47.19841199 330.20965573 -72.14379883 330.38012695 C-73.61670015 330.380558 -75.08960355 330.37881156 -76.5625 330.375 C-77.69176407 330.37468277 -77.69176407 330.37468277 -78.84384155 330.37435913 C-90.33095582 330.342137 -101.0319628 329.61258245 -112 326 C-113.13179687 325.63777344 -114.26359375 325.27554687 -115.4296875 324.90234375 C-128.17822823 320.39296783 -139.85287867 313.93628836 -150 305 C-151.22783203 303.98679687 -151.22783203 303.98679687 -152.48046875 302.953125 C-174.96825592 283.84722211 -186.97031618 254.56356957 -189.53515625 225.609375 C-191.81662588 193.06462789 -184.54281979 161.0665623 -163.30078125 135.7109375 C-145.39250082 115.13758167 -121.84307043 102.99926556 -95 99 C-94.13503906 98.86980469 -93.27007813 98.73960937 -92.37890625 98.60546875 C-89.91463235 98.30198674 -87.47993982 98.12232887 -85 98 C-83.94167969 97.94714844 -82.88335938 97.89429688 -81.79296875 97.83984375 C-56.25452802 97.2034579 -29.55815328 103.04270141 -10.375 120.75 C-7.20431065 123.79038705 -4.10647433 126.89352567 -1 130 C-0.67 87.1 -0.34 44.2 0 0 Z M-117 156 C-117.93779297 156.69029297 -117.93779297 156.69029297 -118.89453125 157.39453125 C-131.86813252 167.55669748 -139.97352619 184.89868709 -142 201 C-143.76202988 223.46399036 -140.85110108 245.05269695 -125.921875 262.85546875 C-125.28765625 263.56316406 -124.6534375 264.27085937 -124 265 C-122.92492188 266.23169922 -122.92492188 266.23169922 -121.828125 267.48828125 C-109.62485338 280.62873222 -93.80859903 286.99733444 -76 288.203125 C-56.36987223 288.50984575 -37.83203258 282.35350189 -23.36547852 268.88745117 C-9.26760853 255.15748662 -0.93474362 236.57579811 -0.61914062 216.84375 C-0.66041393 196.37218985 -5.06605045 178.24847793 -19.7421875 163.19921875 C-20.48726562 162.47347656 -21.23234375 161.74773437 -22 161 C-22.66257812 160.30519531 -23.32515625 159.61039063 -24.0078125 158.89453125 C-37.34471065 145.78583098 -56.43177755 140.74061731 -74.66113281 140.7512207 C-90.49136145 141.00229348 -104.57282503 146.34887808 -117 156 Z " fill="#000000" transform="translate(1518,51)"/>
<path d="M0 0 C0.84691406 0.69738281 1.69382812 1.39476562 2.56640625 2.11328125 C17.747296 15.16189336 28.22911042 31.93426225 34 51 C34.21027832 51.67885254 34.42055664 52.35770508 34.63720703 53.05712891 C39.58062715 69.78960794 39.85788017 89.85271897 37 107 C-19.43 107 -75.86 107 -134 107 C-130.05931705 126.70341477 -123.85845126 141.16252083 -107.265625 152.9609375 C-88.86887567 164.44790299 -67.32153936 166.78233941 -46.453125 161.96484375 C-26.19747349 156.30517642 -13.29719611 144.03545445 -2 127 C3.10892746 128.59342767 6.80299317 131.73394972 10.9375 135 C18.48606869 140.87494506 26.17219611 146.50441027 34 152 C30.93476481 158.89677918 26.87807282 164.26826443 22 170 C21.319375 170.82757813 20.63875 171.65515625 19.9375 172.5078125 C2.62954928 192.80647529 -23.82666552 205.25620191 -50 209 C-52.54509454 209.12484395 -55.06374967 209.20980754 -57.609375 209.23828125 C-58.68940041 209.25297203 -58.68940041 209.25297203 -59.79124451 209.26795959 C-89.18560559 209.58575037 -89.18560559 209.58575037 -103 205 C-103.66370605 204.79101074 -104.32741211 204.58202148 -105.01123047 204.36669922 C-120.26279294 199.51078796 -134.19132538 191.85074379 -146 181 C-146.48952148 180.55285645 -146.97904297 180.10571289 -147.48339844 179.64501953 C-163.63419967 164.72831566 -174.14550239 146.1116732 -180 125 C-180.3196875 123.8759375 -180.639375 122.751875 -180.96875 121.59375 C-188.13057072 91.08969877 -182.62239911 56.99098834 -167 30 C-150.13181434 4.03517069 -125.35651627 -13.58740256 -95.26416016 -20.52734375 C-62.60138035 -27.34588394 -26.0605976 -21.83683786 0 0 Z M-118 40 C-125.89505837 49.61244979 -131.23189621 59.62327347 -133 72 C-92.41 72 -51.82 72 -10 72 C-11.48128639 57.18713611 -16.9313009 45.05565785 -27.875 34.72265625 C-54.47167445 13.1617492 -94.08196399 15.36176956 -118 40 Z " fill="#000000" transform="translate(1785,172)"/>
<path d="M0 0 C0.84691406 0.69738281 1.69382812 1.39476562 2.56640625 2.11328125 C21.33445002 18.24520285 35.13482374 42.44504803 37.81396484 67.29394531 C38.70616247 80.27179114 39.1343476 94.19391442 37 107 C-19.43 107 -75.86 107 -134 107 C-130.05931705 126.70341477 -123.85845126 141.16252083 -107.265625 152.9609375 C-88.86887567 164.44790299 -67.32153936 166.78233941 -46.453125 161.96484375 C-26.01184537 156.25330974 -13.30333843 143.46221339 -1 127 C6.29029762 131.41216409 13.06232908 136.24842298 19.76171875 141.48828125 C24.41339998 145.12122324 29.2046836 148.55967281 34 152 C24.88191101 173.70973568 3.22529821 190.92520897 -18 200 C-34.37402022 206.38137752 -49.5094667 209.42107156 -67.0625 209.375 C-67.84001617 209.37445618 -68.61753235 209.37391235 -69.41860962 209.37335205 C-81.07916263 209.33581051 -91.8565879 208.69910577 -103 205 C-103.66370605 204.79101074 -104.32741211 204.58202148 -105.01123047 204.36669922 C-120.26279294 199.51078796 -134.19132538 191.85074379 -146 181 C-146.48952148 180.55285645 -146.97904297 180.10571289 -147.48339844 179.64501953 C-168.27442242 160.44265654 -181.72234175 133.11616882 -183.16845703 104.68847656 C-183.63197794 90.31738902 -183.80136762 75.95556426 -180 62 C-179.80664062 61.28376465 -179.61328125 60.5675293 -179.4140625 59.82958984 C-171.44531856 31.4286421 -153.77626935 6.43458041 -127.82666016 -8.22802734 C-88.45423043 -29.35449093 -35.34428228 -29.61587349 0 0 Z M-117 39 C-125.99696789 49.31324454 -130.32236003 58.61180017 -133 72 C-92.41 72 -51.82 72 -10 72 C-11.5746695 56.25330498 -17.69236805 43.22945803 -30 33 C-56.25691712 13.95154686 -93.73147082 15.6098583 -117 39 Z " fill="#000000" transform="translate(1006,172)"/>
<path d="M0 0 C2.42557817 2.23683667 4.73851653 4.55595635 7.04052734 6.9206543 C7.71728516 7.59999023 8.39404297 8.27932617 9.09130859 8.97924805 C27.01900662 28.09947588 30.22383508 55.20022792 30.15405273 80.20458984 C30.15377 81.60520933 30.15393028 83.00582896 30.15449524 84.40644836 C30.15477984 88.17428512 30.14893797 91.94208945 30.14192128 95.70991874 C30.13563128 99.66035529 30.1350795 103.61079274 30.13389587 107.56123352 C30.13079911 115.02656019 30.12260821 122.49187206 30.11254638 129.95719224 C30.10133363 138.46272481 30.09586183 146.96825812 30.09085095 155.47379625 C30.08042406 172.9560908 30.06285693 190.43837098 30.04052734 207.9206543 C23.36532394 207.94592375 16.69013278 207.96348697 10.01489258 207.97558594 C7.74210143 207.98062755 5.46931355 207.98746067 3.1965332 207.99609375 C-0.06250817 208.0081669 -3.32150682 208.01388417 -6.58056641 208.01831055 C-7.60347275 208.02347183 -8.62637909 208.02863312 -9.68028259 208.03395081 C-10.6211824 208.03402634 -11.56208221 208.03410187 -12.53149414 208.03417969 C-13.36422348 208.0364003 -14.19695282 208.03862091 -15.05491638 208.04090881 C-16.95947266 207.9206543 -16.95947266 207.9206543 -17.95947266 206.9206543 C-18.06142926 205.17841986 -18.09300893 203.43203799 -18.09750366 201.68682861 C-18.102957 200.55150192 -18.10841034 199.41617523 -18.11402893 198.2464447 C-18.11507126 196.98941238 -18.11611359 195.73238007 -18.1171875 194.43725586 C-18.12498742 192.41769468 -18.13279137 190.39813352 -18.1407454 188.37857294 C-18.14847573 186.19919368 -18.1538495 184.01981867 -18.15870285 181.84043121 C-18.16937908 177.29167312 -18.18962799 172.74298956 -18.21182251 168.1942749 C-18.27374295 155.25593524 -18.32759982 142.31759777 -18.36083984 129.37915039 C-18.37926279 122.2395789 -18.40830366 115.10013028 -18.44884455 107.96064925 C-18.46980571 104.18587558 -18.48535603 100.41125611 -18.48765182 96.6364212 C-18.48982052 93.07406116 -18.50591229 89.51202083 -18.53204155 85.94975853 C-18.54251103 84.04026985 -18.53851574 82.13071837 -18.53385925 80.22120667 C-18.66642004 66.24973276 -21.72445771 52.98168496 -30.20947266 41.6081543 C-41.48508137 30.58880942 -55.35709466 25.93173164 -71.00244141 25.8503418 C-85.69589015 26.1334297 -101.99878415 29.72912838 -112.62744141 40.6315918 C-113.95947266 41.9206543 -113.95947266 41.9206543 -115.95947266 41.9206543 C-116.23017578 42.49557617 -116.50087891 43.07049805 -116.77978516 43.6628418 C-117.97412455 45.94869666 -119.33936571 47.94630723 -120.83447266 50.0456543 C-128.77950195 61.88568575 -130.2533224 74.28931133 -130.27832031 88.26489258 C-130.29338875 90.2129203 -130.29338875 90.2129203 -130.3087616 92.20030212 C-130.33585303 95.73057685 -130.3511484 99.26081215 -130.36418962 102.79116297 C-130.37991239 106.49207694 -130.406673 110.19291147 -130.43222046 113.89376831 C-130.47884741 120.88805871 -130.51566889 127.88236433 -130.54889333 134.87672985 C-130.58722898 142.84542053 -130.63660883 150.8140311 -130.68687749 158.78265405 C-130.7899579 175.16193518 -130.8778378 191.5412501 -130.95947266 207.9206543 C-146.46947266 207.9206543 -161.97947266 207.9206543 -177.95947266 207.9206543 C-177.95947266 134.3306543 -177.95947266 60.7406543 -177.95947266 -15.0793457 C-162.44947266 -15.0793457 -146.93947266 -15.0793457 -130.95947266 -15.0793457 C-130.46447266 -3.1993457 -130.46447266 -3.1993457 -129.95947266 8.9206543 C-128.24759766 7.1056543 -126.53572266 5.2906543 -124.77197266 3.4206543 C-94.18058646 -27.77048019 -32.92341494 -28.86967541 0 0 Z " fill="#000000" transform="translate(1262.95947265625,169.079345703125)"/>
<path d="M0 0 C0.70543945 0.11754639 1.41087891 0.23509277 2.13769531 0.35620117 C6.83803665 1.22406741 10.8554922 2.66589636 15.1875 4.6875 C15.39547022 13.46444607 14.78260662 21.97518182 13.75 30.6875 C13.54793945 32.48767578 13.54793945 32.48767578 13.34179688 34.32421875 C12.24596498 43.87132008 12.24596498 43.87132008 11.1875 47.6875 C7.56180074 47.23428759 4.26817774 46.71096989 0.75 45.6875 C-14.88717206 41.68729319 -31.38582128 43.62404821 -45.8125 50.6875 C-57.65089949 57.90208692 -65.12574053 69.62364859 -68.5625 82.875 C-70.59299054 91.50458478 -70.97540237 99.6647462 -71.01782227 108.50756836 C-71.02772186 109.78630829 -71.03762146 111.06504822 -71.04782104 112.38253784 C-71.07472607 115.87166186 -71.09581306 119.36079921 -71.11582303 122.84996867 C-71.13777204 126.50283245 -71.16511689 130.15565583 -71.19187927 133.80848694 C-71.24168613 140.71788687 -71.28666922 147.62730938 -71.32990164 154.53675324 C-71.37937699 162.4062 -71.43425675 170.27560621 -71.48958123 178.14501369 C-71.60321683 194.32580634 -71.70938227 210.50663639 -71.8125 226.6875 C-87.3225 226.6875 -102.8325 226.6875 -118.8125 226.6875 C-118.8125 153.0975 -118.8125 79.5075 -118.8125 3.6875 C-103.3025 3.6875 -87.7925 3.6875 -71.8125 3.6875 C-71.3175 16.0625 -71.3175 16.0625 -70.8125 28.6875 C-69.41 26.728125 -68.0075 24.76875 -66.5625 22.75 C-56.6712128 9.64687265 -43.20865437 2.10212905 -27.125 -0.6875 C-17.84233633 -1.7815685 -9.19701707 -1.55371138 0 0 Z " fill="#000000" transform="translate(1984.8125,150.3125)"/>
</svg>
